HIERARCHY
ROOT joint_Root
{
	OFFSET 0.0 0.0 0.0
	CHANNELS 6 Xposition Yposition Zposition Zrotation Xrotation Yrotation 
	JOINT Hips
	{
		OFFSET 4.5925 91.4895 -427.239
		CHANNELS 6 Xposition Yposition Zposition Zrotation Xrotation Yrotation 
		JOINT Spine
		{
			OFFSET 15.7357 0.0 0.0
			CHANNELS 6 Xposition Yposition Zposition Zrotation Xrotation Yrotation 
			JOINT Chest
			{
				OFFSET 8.98455 -0.406207 0.0
				CHANNELS 6 Xposition Yposition Zposition Zrotation Xrotation Yrotation 
				JOINT Neck
				{
					OFFSET 16.3773 0.0 0.0
					CHANNELS 6 Xposition Yposition Zposition Zrotation Xrotation Yrotation 
					JOINT Head
					{
						OFFSET 6.45672 0.0 0.0
						CHANNELS 6 Xposition Yposition Zposition Zrotation Xrotation Yrotation 
						End Site
						{
							OFFSET 0.0 0.0 0.0
						}
					}
				}
				JOINT Shoulder_L
				{
					OFFSET 12.9942 -0.242716 4.98039
					CHANNELS 6 Xposition Yposition Zposition Zrotation Xrotation Yrotation 
					JOINT UpperArm_L
					{
						OFFSET 5.34809 0.0 0.0
						CHANNELS 6 Xposition Yposition Zposition Zrotation Xrotation Yrotation 
						JOINT LowerArm_L
						{
							OFFSET 24.3286 1.87007e-05 0.0
							CHANNELS 6 Xposition Yposition Zposition Zrotation Xrotation Yrotation 
							JOINT Hand_L
							{
								OFFSET 22.2916 0.0 0.0
								CHANNELS 6 Xposition Yposition Zposition Zrotation Xrotation Yrotation 
								End Site
								{
									OFFSET 0.0 0.0 0.0
								}
							}
						}
					}
				}
				JOINT Shoulder_R
				{
					OFFSET 12.9945 -0.242716 -4.98039
					CHANNELS 6 Xposition Yposition Zposition Zrotation Xrotation Yrotation 
					JOINT UpperArm_R
					{
						OFFSET -5.34813 0.0 0.0
						CHANNELS 6 Xposition Yposition Zposition Zrotation Xrotation Yrotation 
						JOINT LowerArm_R
						{
							OFFSET -24.3289 0.000322201 0.0
							CHANNELS 6 Xposition Yposition Zposition Zrotation Xrotation Yrotation 
							JOINT Hand_R
							{
								OFFSET -22.2915 -0.000108084 0.0
								CHANNELS 6 Xposition Yposition Zposition Zrotation Xrotation Yrotation 
								End Site
								{
									OFFSET 0.0 0.0 0.0
								}
							}
						}
					}
				}
			}
		}
		JOINT UpperLeg_L
		{
			OFFSET -2.19248 -6.46944 0.0
			CHANNELS 6 Xposition Yposition Zposition Zrotation Xrotation Yrotation 
			JOINT LowerLeg_L
			{
				OFFSET 39.0811 0.0 -1.23785e-05
				CHANNELS 6 Xposition Yposition Zposition Zrotation Xrotation Yrotation 
				JOINT Foot_L
				{
					OFFSET 40.9854 0.0 -1.26872e-05
					CHANNELS 6 Xposition Yposition Zposition Zrotation Xrotation Yrotation 
					JOINT Toes_L
					{
						OFFSET 11.7543 0.0 0.0
						CHANNELS 6 Xposition Yposition Zposition Zrotation Xrotation Yrotation 
						End Site
						{
							OFFSET 0.0 0.0 0.0
						}
					}
				}
			}
		}
		JOINT UpperLeg_R
		{
			OFFSET -2.19251 6.46944 0.0
			CHANNELS 6 Xposition Yposition Zposition Zrotation Xrotation Yrotation 
			JOINT LowerLeg_R
			{
				OFFSET -39.0811 -0.00228153 -0.0401928
				CHANNELS 6 Xposition Yposition Zposition Zrotation Xrotation Yrotation 
				JOINT Foot_R
				{
					OFFSET -40.9854 0.0 0.0
					CHANNELS 6 Xposition Yposition Zposition Zrotation Xrotation Yrotation 
					JOINT Toes_R
					{
						OFFSET -11.7543 0.0 0.0
						CHANNELS 6 Xposition Yposition Zposition Zrotation Xrotation Yrotation 
						End Site
						{
							OFFSET 0.0 0.0 0.0
						}
					}
				}
			}
		}
	}
}
MOTION
Frames:	7
Frame Time:	0.0333333
0.000000 0.000000 0.000000 0.000000 0.000000 -0.000000 -2.813420 80.165400 -2.056040 86.424400 -6.301150 10.558200 15.735700 0.000005 -0.000001 83.312700 79.873300 -81.315400 8.984550 -0.406207 -0.000000 12.399400 -2.256140 4.239650 16.377300 -0.000001 -0.000001 -4.022360 -2.356260 3.265150 6.456720 -0.000001 -0.000000 -10.267000 2.291880 -0.592913 12.994200 -0.242716 4.980390 -90.393700 1.474060 -75.045300 5.348090 -0.000007 -0.000001 -65.564200 33.867800 -15.705100 24.328600 0.000019 0.000005 10.484100 20.766400 -27.561600 22.291600 -0.000001 0.000005 13.277500 5.200460 2.693670 12.994500 -0.242716 -4.980390 87.869000 11.224900 -79.178100 -5.348130 -0.000001 -0.000004 -60.766600 19.831200 -14.541400 -24.328900 0.000322 -0.000009 -4.340570 -10.166900 -23.259900 -22.291500 -0.000108 -0.000004 14.372900 5.357210 -1.559530 -2.192480 -6.469440 -0.000000 -168.707000 -14.211400 -18.170800 39.081100 -0.000007 -0.000012 -0.461601 0.184045 68.263400 40.985400 -0.000006 -0.000013 -0.002384 5.686930 -88.215200 11.754300 -0.000000 0.000003 -0.000175 -0.001654 -16.640200 -2.192510 6.469440 -0.000001 -177.394000 10.058000 160.845000 -39.081100 -0.002282 -0.040193 0.091271 -0.036934 67.261400 -40.985400 0.000008 0.000006 8.863500 1.336560 -87.367100 -11.754300 -0.000006 -0.000006 -0.450495 -0.553171 -16.891600
0.000000 0.000000 0.000000 0.000000 0.000000 -0.000000 -3.223520 81.948400 -1.283720 86.450900 -4.309720 10.457400 15.735700 0.000005 -0.000001 82.548100 80.799800 -81.368200 8.984550 -0.406207 -0.000000 10.510800 -2.341820 2.574100 16.377300 -0.000001 -0.000001 -3.235790 -2.915070 2.692870 6.456720 -0.000001 -0.000000 -8.850190 0.806098 -0.261008 12.994200 -0.242716 4.980390 -90.460700 1.653080 -74.424200 5.348090 -0.000007 -0.000001 -67.346600 30.778000 -13.994400 24.328600 0.000019 0.000005 8.986790 19.433200 -25.422500 22.291600 -0.000001 0.000005 14.539200 5.124650 4.543110 12.994500 -0.242716 -4.980390 87.875700 10.471100 -78.463600 -5.348130 -0.000001 -0.000004 -58.370300 16.732800 -13.324500 -24.328900 0.000322 -0.000009 -3.125090 -8.345270 -20.608100 -22.291500 -0.000108 -0.000004 8.092240 5.329690 -0.772815 -2.192480 -6.469440 -0.000000 -168.803000 -12.713900 -15.773300 39.081100 -0.000007 -0.000012 -0.418264 0.209501 63.395500 40.985400 -0.000006 -0.000013 -0.192992 6.280350 -86.133600 11.754300 -0.000000 0.000003 -0.000142 -0.001384 -16.630200 -2.192510 6.469440 -0.000001 -177.713000 12.105700 163.895000 -39.081100 -0.002282 -0.040193 0.092105 -0.046485 62.400600 -40.985400 0.000008 0.000006 8.910820 1.781500 -85.521300 -11.754300 -0.000006 -0.000006 -0.489991 -0.602058 -17.131200
0.000000 0.000000 0.000000 0.000000 0.000000 -0.000000 -3.429990 84.678700 -0.298597 86.677000 -2.540450 10.034500 15.735700 0.000005 -0.000001 81.454800 82.033900 -81.274700 8.984550 -0.406207 -0.000000 7.998080 -2.356850 0.524802 16.377300 -0.000001 -0.000001 -1.546990 -3.299000 2.193000 6.456720 -0.000001 -0.000000 -7.191750 -0.476236 0.271655 12.994200 -0.242716 4.980390 -90.333600 1.126840 -73.505500 5.348090 -0.000007 -0.000001 -69.460400 28.128900 -10.604700 24.328600 0.000019 0.000005 7.341040 15.868200 -25.230400 22.291600 -0.000001 0.000005 13.294500 5.169350 3.469200 12.994500 -0.242716 -4.980390 88.106400 8.571290 -77.491200 -5.348130 -0.000001 -0.000004 -52.677700 11.441900 -14.093900 -24.328900 0.000322 -0.000009 -2.755350 -8.473290 -18.082800 -22.291500 -0.000108 -0.000004 5.077600 5.300420 0.064223 -2.192480 -6.469440 -0.000000 -169.350000 -11.469600 -11.897200 39.081100 -0.000007 -0.000012 -0.322799 0.224013 55.241300 40.985400 -0.000006 -0.000013 -0.501141 6.648550 -82.562800 11.754300 -0.000000 0.000003 -0.000087 -0.000915 -16.612700 -2.192510 6.469440 -0.000001 -178.433000 14.031600 168.273000 -39.081100 -0.002282 -0.040193 0.081338 -0.055940 54.390200 -40.985400 0.000008 0.000006 8.685910 2.984500 -82.007400 -11.754300 -0.000006 -0.000006 -0.623229 -0.763881 -17.462400
0.000000 0.000000 0.000000 0.000000 0.000000 -0.000000 -3.396920 87.436200 0.583500 87.289500 -1.539990 8.860230 15.735700 0.000005 -0.000001 79.146800 83.532000 -80.024700 8.984550 -0.406207 -0.000000 4.924280 -2.409210 -1.650280 16.377300 -0.000001 -0.000001 0.439455 -3.028260 1.598830 6.456720 -0.000001 -0.000000 -5.319500 -0.933875 0.232773 12.994200 -0.242716 4.980390 -90.035600 0.111471 -72.216900 5.348090 -0.000007 -0.000001 -71.007800 26.097000 -6.315480 24.328600 0.000019 0.000005 7.552800 14.978000 -27.158300 22.291600 -0.000001 0.000005 10.175400 5.231970 1.895530 12.994500 -0.242716 -4.980390 88.542600 6.044870 -76.414000 -5.348130 -0.000001 -0.000004 -45.135400 1.185300 -17.515500 -24.328900 0.000322 -0.000009 -2.628920 -9.146540 -16.106500 -22.291500 -0.000108 -0.000004 5.521190 5.240950 1.666690 -2.192480 -6.469440 -0.000000 -170.476000 -10.994700 -7.909260 39.081100 -0.000007 -0.000012 -0.255994 0.250790 45.588900 40.985400 -0.000006 -0.000013 -0.850450 6.698700 -78.242300 11.754300 -0.000000 0.000003 -0.000029 -0.000355 -16.591400 -2.192510 6.469440 -0.000001 -179.265000 14.954100 172.162000 -39.081100 -0.002282 -0.040193 0.063406 -0.059382 45.364700 -40.985400 0.000008 0.000006 8.098190 4.142980 -77.511500 -11.754300 -0.000006 -0.000006 -0.719053 -0.876122 -18.003100
0.000000 0.000000 0.000000 0.000000 0.000000 -0.000000 -3.134780 89.476200 0.966844 87.580500 -0.414351 6.440030 15.735700 0.000005 -0.000001 73.489300 85.128000 -74.960300 8.984550 -0.406207 -0.000000 1.545270 -2.687890 -2.903470 16.377300 -0.000001 -0.000001 1.750460 -2.561430 0.488386 6.456720 -0.000001 -0.000000 -3.777700 -0.826556 -0.634468 12.994200 -0.242716 4.980390 -89.710000 -0.831707 -70.782800 5.348090 -0.000007 -0.000001 -71.855400 24.878000 -2.924320 24.328600 0.000019 0.000005 8.454160 15.481200 -29.110600 22.291600 -0.000001 0.000005 7.569990 5.252370 1.370200 12.994500 -0.242716 -4.980390 89.180400 3.261740 -75.890900 -5.348130 -0.000001 -0.000004 -35.069200 -10.775300 -21.921200 -24.328900 0.000322 -0.000009 -3.680500 -12.452200 -16.601300 -22.291500 -0.000108 -0.000004 8.500340 5.270310 0.914352 -2.192480 -6.469440 -0.000000 -171.697000 -10.463900 -6.297410 39.081100 -0.000007 -0.000012 -0.196931 0.258369 37.315400 40.985400 -0.000006 -0.000013 -1.033120 6.582900 -74.212500 11.754300 -0.000000 0.000003 -0.000020 -0.000253 -16.587500 -2.192510 6.469440 -0.000001 -179.408000 16.131300 173.776000 -39.081100 -0.002282 -0.040193 0.047767 -0.057854 37.555900 -40.985400 0.000008 0.000006 7.485720 5.159080 -73.271400 -11.754300 -0.000006 -0.000006 -0.637352 -0.775635 -18.628700
0.000000 0.000000 0.000000 0.000000 0.000000 -0.000000 -2.975460 90.651000 1.072350 87.712000 0.596597 4.380200 15.735700 0.000005 -0.000001 69.546100 86.278600 -71.382900 8.984550 -0.406207 -0.000000 -0.829174 -2.462660 -3.690150 16.377300 -0.000001 -0.000001 2.248730 -2.185870 -0.793172 6.456720 -0.000001 -0.000000 -2.874820 -0.918507 -1.679960 12.994200 -0.242716 4.980390 -89.480800 -1.408690 -69.766700 5.348090 -0.000007 -0.000001 -71.055600 24.727500 -1.761510 24.328600 0.000019 0.000005 8.549520 15.234600 -29.774300 22.291600 -0.000001 0.000005 6.740180 5.247340 1.502830 12.994500 -0.242716 -4.980390 90.012400 -0.054956 -76.943000 -5.348130 -0.000001 -0.000004 -23.187600 -23.504900 -22.394700 -24.328900 0.000322 -0.000009 -6.866340 -19.011500 -20.275400 -22.291500 -0.000108 -0.000004 13.143500 5.416600 -3.412420 -2.192480 -6.469440 -0.000000 -172.446000 -10.161100 -5.767390 39.081100 -0.000007 -0.000012 -0.166011 0.268475 31.730700 40.985400 -0.000006 -0.000013 -1.085230 6.822840 -71.366700 11.754300 -0.000000 0.000003 -0.000014 -0.000188 -16.584900 -2.192510 6.469440 -0.000001 -179.343000 17.877200 174.563000 -39.081100 -0.002282 -0.040193 0.037918 -0.055409 31.997900 -40.985400 0.000008 0.000006 7.357530 6.432960 -70.708400 -11.754300 -0.000006 -0.000006 -0.453884 -0.563366 -18.756900
0.000000 0.000000 0.000000 0.000000 0.000000 -0.000000 -2.867080 91.126700 1.176910 87.770800 1.456900 3.312660 15.735700 0.000005 -0.000001 72.303300 86.911900 -74.362800 8.984550 -0.406207 -0.000000 -1.909570 -1.703170 -4.146750 16.377300 -0.000001 -0.000001 2.406480 -2.058330 -1.968320 6.456720 -0.000001 -0.000000 -2.923250 -0.920328 -3.076130 12.994200 -0.242716 4.980390 -89.681700 -0.832044 -69.063700 5.348090 -0.000007 -0.000001 -67.835200 25.213900 -2.398810 24.328600 0.000019 0.000005 8.795130 15.531100 -30.020600 22.291600 -0.000001 0.000005 7.166570 5.237810 1.752270 12.994500 -0.242716 -4.980390 90.978400 -4.302760 -77.181100 -5.348130 -0.000001 -0.000004 -11.395200 -36.057000 -20.250000 -24.328900 0.000322 -0.000009 -12.498400 -26.390400 -26.499900 -22.291500 -0.000108 -0.000004 18.054500 5.554630 -8.854160 -2.192480 -6.469440 -0.000000 -172.702000 -10.436700 -5.671280 39.081100 -0.000007 -0.000012 -0.145294 0.260200 29.178900 40.985400 -0.000006 -0.000013 -0.905075 7.759440 -70.057600 11.754300 -0.000000 0.000003 -0.000015 -0.000196 -16.585200 -2.192510 6.469440 -0.000001 -179.625000 20.475100 175.532000 -39.081100 -0.002282 -0.040193 0.028303 -0.045917 28.564900 -40.985400 0.000008 0.000006 7.349910 8.562190 -70.265000 -11.754300 -0.000006 -0.000006 -0.003534 -0.046508 -18.464700
